<svg xmlns="http://www.w3.org/2000/svg" xmlns:xlink="http://www.w3.org/1999/xlink" >
  <symbol id="cross" >
     <path d="M4.11 2.697L2.698 4.11 6.586 8l-3.89 3.89 1.415 1.413L8 9.414l3.89 3.89 1.413-1.415L9.414 8l3.89-3.89-1.415-1.413L8 6.586l-3.89-3.89z" ></path>
  </symbol>

  <symbol id="arrow">
   <path opacity="0.8" d="M0.93934 10.9393C0.353553 11.5251 0.353553 12.4749 0.93934 13.0607L10.4853 22.6066C11.0711 23.1924 12.0208 23.1924 12.6066 22.6066C13.1924 22.0208 13.1924 21.0711 12.6066 20.4853L4.12132 12L12.6066 3.51472C13.1924 2.92893 13.1924 1.97918 12.6066 1.3934C12.0208 0.807612 11.0711 0.807612 10.4853 1.3934L0.93934 10.9393ZM53 10.5L2 10.5V13.5L53 13.5V10.5Z" fill="black"/>
  </symbol>
</svg>